<svg width="48" height="46" viewBox="0 0 48 46" fill="none" xmlns="http://www.w3.org/2000/svg">
<ellipse opacity="0.1" cx="24" cy="23.0003" rx="24" ry="22.5882" fill="#46C95C"/>
<path d="M24.4998 14.5298C23.5715 14.5298 22.6813 14.8768 22.0249 15.4946C21.3685 16.1124 20.9998 16.9502 20.9998 17.8239C20.9998 18.6976 21.3685 19.5354 22.0249 20.1532C22.6813 20.771 23.5715 21.118 24.4998 21.118C25.428 21.118 26.3183 20.771 26.9746 20.1532C27.631 19.5354 27.9998 18.6976 27.9998 17.8239C27.9998 16.9502 27.631 16.1124 26.9746 15.4946C26.3183 14.8768 25.428 14.5298 24.4998 14.5298ZM33.0251 14.9967C32.9349 14.9957 32.8449 15.0062 32.7576 15.0279L30.7576 15.4985C30.6301 15.5284 30.5101 15.5817 30.4044 15.6553C30.2988 15.7288 30.2096 15.8212 30.1419 15.9273C30.0742 16.0333 30.0294 16.1508 30.01 16.2731C29.9906 16.3954 29.997 16.5201 30.0288 16.6401C30.0606 16.7601 30.1172 16.8731 30.1954 16.9725C30.2736 17.0719 30.3718 17.1558 30.4845 17.2195C30.5971 17.2831 30.722 17.3253 30.852 17.3435C30.9819 17.3618 31.1145 17.3557 31.2419 17.3257L33.2419 16.8552C33.4807 16.8034 33.6909 16.6709 33.8327 16.4829C33.9746 16.2949 34.0381 16.0644 34.0114 15.8352C33.9847 15.606 33.8695 15.394 33.6877 15.2395C33.5059 15.0849 33.2701 14.9985 33.0251 14.9967ZM15.9451 14.9985C15.7036 15.0081 15.474 15.0995 15.2987 15.256C15.1234 15.4126 15.0142 15.6235 14.9914 15.8499C14.9685 16.0763 15.0335 16.3029 15.1743 16.4876C15.3152 16.6724 15.5224 16.803 15.7576 16.8552L17.7576 17.3257C17.885 17.3557 18.0175 17.3617 18.1475 17.3434C18.2774 17.3252 18.4023 17.283 18.5149 17.2193C18.6275 17.1557 18.7257 17.0717 18.8039 16.9723C18.8821 16.873 18.9387 16.7601 18.9705 16.6401C19.0023 16.5201 19.0086 16.3954 18.9892 16.2731C18.9699 16.1508 18.925 16.0333 18.8574 15.9273C18.7898 15.8213 18.7006 15.7289 18.595 15.6553C18.4894 15.5817 18.3694 15.5285 18.2419 15.4985L16.2419 15.0279C16.1451 15.0042 16.045 14.9943 15.9451 14.9985ZM18.0251 18.2908C17.9349 18.2898 17.8449 18.3003 17.7576 18.3221L15.7576 18.7927C15.5001 18.8531 15.2787 19.0073 15.1421 19.2214C15.0055 19.4355 14.9648 19.6919 15.0291 19.9342C15.0933 20.1765 15.2572 20.3849 15.4846 20.5134C15.7121 20.642 15.9845 20.6803 16.2419 20.6199L18.2419 20.1493C18.4807 20.0975 18.6909 19.965 18.8327 19.777C18.9746 19.589 19.0381 19.3585 19.0114 19.1293C18.9847 18.9001 18.8695 18.6881 18.6877 18.5336C18.5059 18.379 18.2701 18.2926 18.0251 18.2908ZM30.9451 18.2927C30.7036 18.3022 30.474 18.3937 30.2987 18.5502C30.1234 18.7067 30.0142 18.9176 29.9914 19.144C29.9685 19.3704 30.0335 19.597 30.1743 19.7818C30.3152 19.9666 30.5224 20.0971 30.7576 20.1493L32.7576 20.6199C32.8851 20.6498 33.0176 20.6559 33.1475 20.6376C33.2775 20.6194 33.4024 20.5772 33.515 20.5136C33.6277 20.4499 33.7259 20.366 33.8041 20.2666C33.8823 20.1672 33.9389 20.0543 33.9707 19.9343C34.0025 19.8143 34.0089 19.6895 33.9895 19.5672C33.9701 19.4449 33.9253 19.3274 33.8576 19.2214C33.7899 19.1154 33.7007 19.0229 33.5951 18.9494C33.4894 18.8758 33.3694 18.8226 33.2419 18.7927L31.2419 18.3221C31.1451 18.2983 31.045 18.2884 30.9451 18.2927ZM17.9998 22.0665C17.6893 22.0677 17.381 22.1142 17.0857 22.2044L12.9998 23.107V29.8846L16.9998 28.6548L25.156 31.3404C25.808 31.555 26.5265 31.502 27.1365 31.1952L33.2673 28.1107C33.9383 27.7728 34.2104 26.9999 33.8884 26.3515C33.5554 25.6814 32.7108 25.3902 31.9958 25.6989L26.0857 28.2504L25.7126 27.7908L26.0076 27.1732C26.4626 26.2179 26.0022 25.0966 24.9822 24.6787L19.1677 22.289C19.1619 22.2871 19.156 22.2853 19.1501 22.2835L19.1248 22.2724H19.1189C18.7633 22.1371 18.3834 22.0672 17.9998 22.0665Z" fill="#46C95C"/>
</svg>
