<svg width="40" height="40" viewBox="0 0 40 40" fill="none" xmlns="http://www.w3.org/2000/svg">
<path opacity="0.1" d="M20 40C31.0457 40 40 31.0457 40 20C40 8.9543 31.0457 0 20 0C8.9543 0 0 8.9543 0 20C0 31.0457 8.9543 40 20 40Z" fill="#5242A2"/>
<path opacity="0.5" d="M20.24 8C20.24 8.0749 20.24 8.1498 20.24 8.22471C20.24 10.9961 20.24 13.8049 20.24 16.5762C20.24 16.6137 20.24 16.6886 20.24 16.726C20.24 16.7635 20.2035 16.801 20.1671 16.801C19.9117 16.9133 19.6929 17.0257 19.4376 17.138C19.1093 17.2878 18.7446 17.4376 18.4164 17.6249C18.0152 17.8121 17.6139 17.9994 17.2127 18.1866C16.8845 18.3364 16.5562 18.4862 16.228 18.636C15.8268 18.8233 15.4256 19.0106 15.0244 19.1978C14.6961 19.3476 14.3679 19.4974 14.0031 19.6847C13.7478 19.797 13.456 19.9468 13.2007 20.0592C13.1643 20.0592 13.1643 20.0966 13.1278 20.0592C13.1278 20.0592 13.1278 20.0592 13.0913 20.0592C13.2007 19.8719 13.3101 19.7221 13.4196 19.5349C14.0031 18.5237 14.6232 17.5125 15.2067 16.5013C15.8268 15.4153 16.4833 14.3292 17.1033 13.2431C17.6869 12.2319 18.2705 11.2208 18.854 10.2471C19.2917 9.49803 19.7294 8.78647 20.1306 8.03745C20.2035 8.03745 20.2035 8 20.24 8C20.24 8 20.2035 8 20.24 8Z" fill="#5242A2"/>
<path d="M27.3153 20.0589C26.7682 20.4334 26.1847 20.7704 25.6376 21.1075C23.8504 22.1936 22.0997 23.2422 20.3125 24.3283C20.2761 24.3283 20.2761 24.3657 20.2396 24.3657C20.2031 24.3657 20.2031 24.3283 20.2031 24.3283C20.2031 24.2908 20.2031 24.2534 20.2031 24.2159C20.2031 21.7816 20.2031 19.3473 20.2031 16.913C20.2031 16.8755 20.2031 16.8381 20.2031 16.8006C20.2031 16.7632 20.2396 16.7632 20.2761 16.7632C20.422 16.8381 20.5679 16.913 20.7502 16.9879C21.1879 17.2126 21.662 17.3998 22.0997 17.6246C22.5009 17.8118 22.8656 17.9991 23.2668 18.1489C23.6681 18.3361 24.0328 18.5234 24.434 18.7106C24.7622 18.8604 25.127 19.0102 25.4552 19.1975C25.7835 19.3473 26.1482 19.4971 26.4765 19.6844C26.7318 19.7967 26.9871 19.9465 27.2789 20.0589C27.2789 20.0214 27.2789 20.0589 27.3153 20.0589Z" fill="#5242A2"/>
<path opacity="0.4" d="M20.2372 31.706C20.2372 31.706 20.2007 31.706 20.2372 31.706C20.2007 31.706 20.2007 31.706 20.1643 31.6686C19.4348 30.6199 18.7418 29.6088 18.0124 28.5601C17.2829 27.5115 16.5535 26.4629 15.824 25.4143C15.131 24.4031 14.4016 23.3919 13.7086 22.3433C13.5262 22.0811 13.3438 21.819 13.1615 21.5568C13.1615 21.5194 13.125 21.5194 13.125 21.4819C13.1615 21.4819 13.1615 21.5194 13.1979 21.5194C14.1827 22.1186 15.204 22.7178 16.1887 23.317C17.3194 24.0286 18.4865 24.7027 19.6172 25.4143C19.7995 25.5266 20.0184 25.639 20.2007 25.7513C20.2372 25.7513 20.2372 25.7888 20.2372 25.8262C20.2372 25.8637 20.2372 25.9011 20.2372 25.9386C20.2372 27.8111 20.2372 29.6462 20.2372 31.5188C20.2372 31.5562 20.2372 31.6311 20.2372 31.706Z" fill="#5242A2"/>
<path d="M13.125 20.0586C13.125 20.0586 13.1615 20.0586 13.125 20.0586C13.1615 20.0586 13.1615 20.0586 13.125 20.0586C13.125 20.096 13.125 20.096 13.125 20.0586Z" fill="#808080"/>
<path d="M13.1675 20.0947C13.1675 20.0572 13.1675 20.0572 13.1675 20.0947C13.5322 19.9074 13.8969 19.7576 14.2617 19.5704C14.7358 19.3457 15.21 19.121 15.6841 18.8963C16.0488 18.709 16.4136 18.5592 16.7783 18.372C17.2889 18.1098 17.836 17.8851 18.3466 17.6229C18.7114 17.4731 19.0761 17.2859 19.4408 17.1361C19.6961 17.0237 19.9514 16.9114 20.2067 16.7616C20.2432 16.7616 20.2432 16.7241 20.2797 16.7241C20.2797 16.7241 20.2797 16.7241 20.2797 16.7616C20.2797 16.799 20.2797 16.799 20.2797 16.8365C20.2797 19.3082 20.2797 21.78 20.2797 24.2517C20.2797 24.2892 20.2797 24.3266 20.2797 24.3641C20.2432 24.4015 20.2432 24.3641 20.2067 24.3641C20.0973 24.2892 19.9879 24.2517 19.915 24.1768C17.6901 22.8286 15.4653 21.4804 13.2404 20.1321C13.204 20.0947 13.1675 20.0947 13.1675 20.0947Z" fill="#5242A2"/>
<path opacity="0.7" d="M27.2761 21.4819C27.2761 21.5194 27.2761 21.5194 27.2396 21.5568C25.1242 24.6278 23.0088 27.6613 20.8933 30.7323C20.6745 31.0694 20.4557 31.369 20.2368 31.706C20.2368 31.706 20.2368 31.706 20.2368 31.6686C20.2368 31.6311 20.2368 31.6311 20.2368 31.5937C20.2368 29.6837 20.2368 27.7737 20.2368 25.8637C20.2368 25.8262 20.2368 25.7888 20.2368 25.7513C20.711 25.4517 21.1851 25.1521 21.6593 24.89C23.5194 23.7664 25.3795 22.6429 27.2396 21.5194C27.2396 21.4819 27.2761 21.4819 27.2761 21.4819Z" fill="#5242A2"/>
<path opacity="0.7" d="M20.2368 16.7627C20.2368 16.7252 20.2368 16.6878 20.2368 16.6878C20.2368 13.8415 20.2368 10.9578 20.2368 8.11152C20.2368 8.07407 20.2368 8.03662 20.2368 8.03662C22.5711 12.0064 24.9053 15.9762 27.2396 19.946C27.2761 19.9834 27.3126 20.0209 27.3126 20.0583C27.1667 19.9834 27.0208 19.9085 26.8384 19.8336C26.656 19.7587 26.4737 19.6464 26.2913 19.5715C26.1819 19.534 26.0725 19.4591 25.9266 19.4217C25.7442 19.3468 25.5254 19.2344 25.343 19.1595C25.2336 19.1221 25.1242 19.0472 25.0148 19.0097C24.7595 18.8974 24.5041 18.785 24.2488 18.6727C24.1029 18.5978 23.9935 18.5603 23.8476 18.4854C23.6653 18.4105 23.4829 18.2982 23.3005 18.2233C23.1911 18.1858 23.0817 18.1109 22.9723 18.0735C22.717 17.9611 22.4617 17.8487 22.2064 17.7364C22.0605 17.6615 21.951 17.624 21.8052 17.5491C21.6228 17.4742 21.4404 17.3619 21.2581 17.287C21.1486 17.2121 21.0027 17.1746 20.8933 17.0997C20.6745 16.9874 20.4557 16.875 20.2368 16.7627Z" fill="#5242A2"/>
</svg>
