<svg width="22" height="14" viewBox="0 0 22 14" fill="none" xmlns="http://www.w3.org/2000/svg">
<path d="M2.00008 0.000100007C1.86757 -0.00177404 1.73601 0.0227073 1.61304 0.072121C1.49007 0.121535 1.37815 0.194895 1.28378 0.28794C1.18941 0.380984 1.11447 0.491857 1.06333 0.614114C1.01218 0.736371 0.98584 0.867575 0.98584 1.0001C0.98584 1.13263 1.01218 1.26383 1.06333 1.38609C1.11447 1.50834 1.18941 1.61922 1.28378 1.71226C1.37815 1.8053 1.49007 1.87867 1.61304 1.92808C1.73601 1.97749 1.86757 2.00197 2.00008 2.0001H20.0001C20.1326 2.00197 20.2642 1.97749 20.3871 1.92808C20.5101 1.87867 20.622 1.8053 20.7164 1.71226C20.8108 1.61922 20.8857 1.50834 20.9368 1.38609C20.988 1.26383 21.0143 1.13263 21.0143 1.0001C21.0143 0.867575 20.988 0.736371 20.9368 0.614114C20.8857 0.491857 20.8108 0.380984 20.7164 0.28794C20.622 0.194895 20.5101 0.121535 20.3871 0.072121C20.2642 0.0227073 20.1326 -0.00177404 20.0001 0.000100007H2.00008ZM2.00008 6.0001C1.86757 5.99823 1.73601 6.02271 1.61304 6.07212C1.49007 6.12153 1.37815 6.1949 1.28378 6.28794C1.18941 6.38098 1.11447 6.49186 1.06333 6.61411C1.01218 6.73637 0.98584 6.86758 0.98584 7.0001C0.98584 7.13263 1.01218 7.26383 1.06333 7.38609C1.11447 7.50834 1.18941 7.61922 1.28378 7.71226C1.37815 7.8053 1.49007 7.87867 1.61304 7.92808C1.73601 7.97749 1.86757 8.00197 2.00008 8.0001H20.0001C20.1326 8.00197 20.2642 7.97749 20.3871 7.92808C20.5101 7.87867 20.622 7.8053 20.7164 7.71226C20.8108 7.61922 20.8857 7.50834 20.9368 7.38609C20.988 7.26383 21.0143 7.13263 21.0143 7.0001C21.0143 6.86758 20.988 6.73637 20.9368 6.61411C20.8857 6.49186 20.8108 6.38098 20.7164 6.28794C20.622 6.1949 20.5101 6.12153 20.3871 6.07212C20.2642 6.02271 20.1326 5.99823 20.0001 6.0001H2.00008ZM2.00008 12.0001C1.86757 11.9982 1.73601 12.0227 1.61304 12.0721C1.49007 12.1215 1.37815 12.1949 1.28378 12.2879C1.18941 12.381 1.11447 12.4919 1.06333 12.6141C1.01218 12.7364 0.98584 12.8676 0.98584 13.0001C0.98584 13.1326 1.01218 13.2638 1.06333 13.3861C1.11447 13.5083 1.18941 13.6192 1.28378 13.7123C1.37815 13.8053 1.49007 13.8787 1.61304 13.9281C1.73601 13.9775 1.86757 14.002 2.00008 14.0001H20.0001C20.1326 14.002 20.2642 13.9775 20.3871 13.9281C20.5101 13.8787 20.622 13.8053 20.7164 13.7123C20.8108 13.6192 20.8857 13.5083 20.9368 13.3861C20.988 13.2638 21.0143 13.1326 21.0143 13.0001C21.0143 12.8676 20.988 12.7364 20.9368 12.6141C20.8857 12.4919 20.8108 12.381 20.7164 12.2879C20.622 12.1949 20.5101 12.1215 20.3871 12.0721C20.2642 12.0227 20.1326 11.9982 20.0001 12.0001H2.00008Z" fill="#131E40"/>
</svg>
