<svg width="48" height="48" viewBox="0 0 48 48" fill="none" xmlns="http://www.w3.org/2000/svg">
<circle opacity="0.1" cx="24" cy="24" r="24" fill="#5242A2"/>
<g clip-path="url(#clip0)">
<path d="M14.4002 21.3334C13.8114 21.3334 13.3335 21.8112 13.3335 22.4V33.0667C13.3335 33.6555 13.8114 34.1334 14.4002 34.1334H33.6002C34.189 34.1334 34.6668 33.6555 34.6668 33.0667V22.4C34.6668 21.8112 34.189 21.3334 33.6002 21.3334H14.4002ZM16.4397 23.4667H31.5606C31.6402 23.691 31.7688 23.8948 31.9371 24.0631C32.1054 24.2314 32.3092 24.36 32.5335 24.4396V31.0271C32.3092 31.1067 32.1054 31.2354 31.9371 31.4037C31.7688 31.572 31.6402 31.7757 31.5606 32H16.4397C16.3602 31.7757 16.2315 31.572 16.0632 31.4037C15.8949 31.2354 15.6912 31.1067 15.4668 31.0271V24.4396C15.6912 24.36 15.8949 24.2314 16.0632 24.0631C16.2315 23.8948 16.3602 23.691 16.4397 23.4667ZM24.0002 24.5334C23.1515 24.5334 22.3375 24.8705 21.7374 25.4706C21.1373 26.0707 20.8002 26.8847 20.8002 27.7334C20.8002 28.5821 21.1373 29.396 21.7374 29.9961C22.3375 30.5962 23.1515 30.9334 24.0002 30.9334C24.8489 30.9334 25.6628 30.5962 26.2629 29.9961C26.863 29.396 27.2002 28.5821 27.2002 27.7334C27.2002 26.8847 26.863 26.0707 26.2629 25.4706C25.6628 24.8705 24.8489 24.5334 24.0002 24.5334ZM18.6668 26.6667C18.078 26.6667 17.6002 27.1435 17.6002 27.7334C17.6002 28.3232 18.078 28.8 18.6668 28.8C19.2556 28.8 19.7335 28.3232 19.7335 27.7334C19.7335 27.1435 19.2556 26.6667 18.6668 26.6667ZM29.3335 26.6667C28.7447 26.6667 28.2668 27.1435 28.2668 27.7334C28.2668 28.3232 28.7447 28.8 29.3335 28.8C29.9223 28.8 30.4002 28.3232 30.4002 27.7334C30.4002 27.1435 29.9223 26.6667 29.3335 26.6667Z" fill="#5242A2"/>
<path d="M20.6877 16.0748L23.5002 18.8873C23.6389 19.026 23.8076 19.1 24 19.1C24.1924 19.1 24.3611 19.026 24.4998 18.8873L27.3123 16.0748C27.5924 15.7946 27.6001 15.3413 27.31 15.0728C27.1696 14.9337 26.9825 14.8625 26.8125 14.8625C26.6415 14.8625 26.4534 14.9344 26.3127 15.0751L24.7125 16.6753V12.95C24.7125 12.5484 24.4016 12.2375 24 12.2375C23.5984 12.2375 23.2875 12.5484 23.2875 12.95V16.6753L21.6873 15.0751C21.5466 14.9344 21.3585 14.8625 21.1875 14.8625C21.0165 14.8625 20.8284 14.9344 20.6877 15.0751C20.4041 15.3587 20.4041 15.7912 20.6877 16.0748Z" fill="#5242A2" stroke="#5242A2" stroke-width="0.3"/>
</g>
<defs>
<clipPath id="clip0">
<rect width="24" height="24" fill="white" transform="translate(12 12)"/>
</clipPath>
</defs>
</svg>
