<svg width="48" height="48" viewBox="0 0 48 48" fill="none" xmlns="http://www.w3.org/2000/svg">
<circle opacity="0.1" cx="24" cy="24" r="24" fill="#2EBDC2"/>
<g clip-path="url(#clip0)">
<path d="M14.4002 21.3335C13.8114 21.3335 13.3335 21.8114 13.3335 22.4002V33.0668C13.3335 33.6556 13.8114 34.1335 14.4002 34.1335H33.6002C34.189 34.1335 34.6668 33.6556 34.6668 33.0668V22.4002C34.6668 21.8114 34.189 21.3335 33.6002 21.3335H14.4002ZM16.4397 23.4668H31.5606C31.6402 23.6912 31.7688 23.8949 31.9371 24.0632C32.1054 24.2315 32.3092 24.3602 32.5335 24.4397V31.0272C32.3092 31.1068 32.1054 31.2355 31.9371 31.4038C31.7688 31.5721 31.6402 31.7758 31.5606 32.0002H16.4397C16.3602 31.7758 16.2315 31.5721 16.0632 31.4038C15.8949 31.2355 15.6912 31.1068 15.4668 31.0272V24.4397C15.6912 24.3602 15.8949 24.2315 16.0632 24.0632C16.2315 23.8949 16.3602 23.6912 16.4397 23.4668ZM24.0002 24.5335C23.1515 24.5335 22.3375 24.8706 21.7374 25.4708C21.1373 26.0709 20.8002 26.8848 20.8002 27.7335C20.8002 28.5822 21.1373 29.3961 21.7374 29.9962C22.3375 30.5964 23.1515 30.9335 24.0002 30.9335C24.8489 30.9335 25.6628 30.5964 26.2629 29.9962C26.863 29.3961 27.2002 28.5822 27.2002 27.7335C27.2002 26.8848 26.863 26.0709 26.2629 25.4708C25.6628 24.8706 24.8489 24.5335 24.0002 24.5335ZM18.6668 26.6668C18.078 26.6668 17.6002 27.1436 17.6002 27.7335C17.6002 28.3234 18.078 28.8002 18.6668 28.8002C19.2556 28.8002 19.7335 28.3234 19.7335 27.7335C19.7335 27.1436 19.2556 26.6668 18.6668 26.6668ZM29.3335 26.6668C28.7447 26.6668 28.2668 27.1436 28.2668 27.7335C28.2668 28.3234 28.7447 28.8002 29.3335 28.8002C29.9223 28.8002 30.4002 28.3234 30.4002 27.7335C30.4002 27.1436 29.9223 26.6668 29.3335 26.6668Z" fill="#2EBDC2"/>
<path d="M20.6877 16.075L23.5002 18.8875C23.6389 19.0262 23.8076 19.1002 24 19.1002C24.1924 19.1002 24.3611 19.0262 24.4998 18.8875L27.3123 16.075C27.5924 15.7949 27.6001 15.3415 27.31 15.0731C27.1696 14.9339 26.9825 14.8627 26.8125 14.8627C26.6415 14.8627 26.4534 14.9347 26.3127 15.0754L24.7125 16.6756V12.9502C24.7125 12.5486 24.4016 12.2377 24 12.2377C23.5984 12.2377 23.2875 12.5486 23.2875 12.9502V16.6756L21.6873 15.0754C21.5466 14.9347 21.3585 14.8627 21.1875 14.8627C21.0165 14.8627 20.8284 14.9347 20.6877 15.0754C20.4041 15.359 20.4041 15.7914 20.6877 16.075Z" fill="#2EBDC2" stroke="#2EBDC2" stroke-width="0.3"/>
</g>
<defs>
<clipPath id="clip0">
<rect width="24" height="24" fill="white" transform="translate(12 12)"/>
</clipPath>
</defs>
</svg>
